# xmcd
#
# Track frame offsets: 
#        150
#        19238
#        37175
#        54663
#        73873
#        93600
#        116868
#        137790
#        153018
#        166805
#
# Disc length: 2392 seconds
#
# Revision: 3
# Processed by: cddbd v1.5.2PL0 Copyright (c) Steve Scherf et al.
# Submitted via: ExactAudioCopy v0.99pb4
#
DISCID=8c09560a
DTITLE=Ruth Brown - Brown Black and Beautiful
DYEAR=1900
DGENRE=
TTITLE0=I Want To Sleep With You
TTITLE1=What Color Is Blue
TTITLE2=Brown Sugar
TTITLE3=Lots More Of Me Leaving (Less Of Me Coming Home)
TTITLE4=Ain't No Piece Of Cake
TTITLE5=Stop Knocking
TTITLE6=Old Fashioned Goodtime Loving You
TTITLE7=Sugar Babe
TTITLE8=My Ol' Bed
TTITLE9=I Love My Man
EXTD=
EXTT0=
EXTT1=
EXTT2=
EXTT3=
EXTT4=
EXTT5=
EXTT6=
EXTT7=
EXTT8=
EXTT9=
PLAYORDER=
